<?xml version="1.0" encoding="UTF-8"?>
<svg width="121px" height="24px" viewBox="0 0 121 24" version="1.1" xmlns="http://www.w3.org/2000/svg" xmlns:xlink="http://www.w3.org/1999/xlink">
    <title>Group</title>
    <g id="Page-1" stroke="none" stroke-width="1" fill="none" fillRule="evenodd">
        <g id="Group" transform="translate(0.92, 0.3614)">
            <g id="DiARY.simple" transform="translate(0, 1.8066)" fill="#000000" fillRule="nonzero">
                <path d="M-2.84217094e-14,16.824 L5.184,16.824 C10.464,16.824 12.936,13.824 12.936,8.64 L12.936,8.136 C12.936,2.88 10.128,0.384 5.136,0.384 L-2.84217094e-14,0.384 L-2.84217094e-14,16.824 Z M2.472,14.76 L2.472,2.448 L4.944,2.448 C8.352,2.448 10.272,3.816 10.272,8.136 L10.272,8.952 C10.272,13.08 8.688,14.76 5.232,14.76 L2.472,14.76 Z" id="Shape"></path>
                <path d="M15.624,16.824 L17.976,16.824 L17.976,4.584 L15.624,4.584 L15.624,16.824 Z M15.6,2.304 L18,2.304 L18,0 L15.6,0 L15.6,2.304 Z" id="Shape"></path>
                <path d="M19.944,16.824 L22.272,16.824 L23.832,12.36 L30.12,12.36 L31.704,16.824 L34.296,16.824 L28.392,0.384 L25.896,0.384 L19.944,16.824 Z M26.904,3.504 L26.976,3.504 L29.4,10.392 L24.504,10.392 L26.904,3.504 Z" id="Shape"></path>
                <path d="M36.48,16.824 L38.952,16.824 L38.952,9.984 L41.736,9.984 L45.576,16.824 L48.336,16.824 L44.136,9.528 L44.136,9.408 C46.032,8.688 47.208,7.464 47.208,5.136 C47.208,1.968 45.264,0.384 41.616,0.384 L36.48,0.384 L36.48,16.824 Z M38.952,8.16 L38.952,2.4 L41.352,2.4 C43.632,2.4 44.616,3.216 44.616,5.208 C44.616,7.2 43.68,8.16 41.376,8.16 L38.952,8.16 Z" id="Shape"></path>
                <polygon id="Path" points="54.432 16.824 56.904 16.824 56.904 10.464 62.232 0.384 59.832 0.384 55.848 8.136 55.776 8.136 51.72 0.384 49.08 0.384 54.432 10.464"></polygon>
                <polygon id="Path" points="64.3144336 15.5966484 66.4575 15.5966484 66.4575 17.832 64.3144336 17.832"></polygon>
                <path d="M70.4550586,14.878875 C70.5019336,15.4062187 70.6337695,15.8105156 70.8505664,16.0917656 C71.2490039,16.6015312 71.9404102,16.8564141 72.9247852,16.8564141 C73.5107227,16.8564141 74.0263477,16.7289727 74.4716602,16.4740898 C74.9169727,16.219207 75.1396289,15.8251641 75.1396289,15.2919609 C75.1396289,14.8876641 74.960918,14.5800469 74.6034961,14.3691094 C74.3749805,14.2402031 73.9238086,14.0907891 73.2499805,13.9208672 L71.9931445,13.6044609 C71.1904102,13.4052422 70.5986133,13.1825859 70.2177539,12.9364922 C69.5380664,12.5087578 69.1982227,11.9169609 69.1982227,11.1611016 C69.1982227,10.2704766 69.5190234,9.54977344 70.160625,8.99899219 C70.8022266,8.44821094 71.6650195,8.17282031 72.7490039,8.17282031 C74.1669727,8.17282031 75.1894336,8.58883594 75.8163867,9.42086719 C76.2089648,9.94821094 76.3993945,10.5165703 76.3876758,11.1259453 L74.8935352,11.1259453 C74.8642383,10.7685234 74.7382617,10.4433281 74.5156055,10.1503594 C74.1523242,9.73434375 73.5224414,9.52633594 72.625957,9.52633594 C72.0283008,9.52633594 71.5756641,9.64059375 71.2680469,9.86910937 C70.9604297,10.097625 70.8066211,10.3993828 70.8066211,10.7743828 C70.8066211,11.1845391 71.0087695,11.5126641 71.4130664,11.7587578 C71.6474414,11.9052422 71.9931445,12.0341484 72.4501758,12.1454766 L73.4960742,12.4003594 C74.632793,12.67575 75.3945117,12.9423516 75.7812305,13.2001641 C76.3964648,13.6044609 76.704082,14.2402031 76.704082,15.1073906 C76.704082,15.9452812 76.3862109,16.6689141 75.7504687,17.2782891 C75.1147266,17.8876641 74.1464648,18.1923516 72.8456836,18.1923516 C71.445293,18.1923516 70.4535937,17.8744805 69.8705859,17.2387383 C69.2875781,16.6029961 68.9755664,15.816375 68.9345508,14.878875 L70.4550586,14.878875 Z" id="Path"></path>
                <path d="M78.5146289,8.46285937 L80.1230273,8.46285937 L80.1230273,17.832 L78.5146289,17.832 L78.5146289,8.46285937 Z M78.5146289,4.92086719 L80.1230273,4.92086719 L80.1230273,6.71383594 L78.5146289,6.71383594 L78.5146289,4.92086719 Z" id="Shape"></path>
                <path d="M82.5136523,8.41891406 L84.0781055,8.41891406 L84.0781055,9.75485156 C84.4531055,9.29196094 84.7929492,8.95504687 85.0976367,8.74410937 C85.6191211,8.3866875 86.210918,8.20797656 86.8730273,8.20797656 C87.6230273,8.20797656 88.226543,8.39254687 88.6835742,8.7616875 C88.9413867,8.972625 89.1757617,9.28317187 89.3866992,9.69332812 C89.7382617,9.18942187 90.1513477,8.81588672 90.625957,8.57272266 C91.1005664,8.32955859 91.6337695,8.20797656 92.2255664,8.20797656 C93.4911914,8.20797656 94.3525195,8.66500781 94.8095508,9.57907031 C95.0556445,10.0712578 95.1786914,10.7333672 95.1786914,11.5653984 L95.1786914,17.832 L93.5351367,17.832 L93.5351367,11.2929375 C93.5351367,10.6659844 93.3783984,10.2353203 93.0649219,10.0009453 C92.7514453,9.76657031 92.3691211,9.64938281 91.9179492,9.64938281 C91.2968555,9.64938281 90.7621875,9.85739062 90.3139453,10.2734062 C89.8657031,10.6894219 89.641582,11.3837578 89.641582,12.3564141 L89.641582,17.832 L88.0331836,17.832 L88.0331836,11.6884453 C88.0331836,11.0497734 87.9570117,10.5839531 87.804668,10.2909844 C87.5644336,9.85153125 87.1161914,9.63180469 86.4599414,9.63180469 C85.8622852,9.63180469 85.3188281,9.86325 84.8295703,10.3261406 C84.3403125,10.7890312 84.0956836,11.6269219 84.0956836,12.8398125 L84.0956836,17.832 L82.5136523,17.832 L82.5136523,8.41891406 Z" id="Path"></path>
                <path d="M101.480449,16.7685234 C102.21873,16.7685234 102.8325,16.4594414 103.321758,15.8412773 C103.811016,15.2231133 104.055645,14.2987969 104.055645,13.0683281 C104.055645,12.3183281 103.947246,11.6737969 103.730449,11.1347344 C103.320293,10.097625 102.570293,9.57907031 101.480449,9.57907031 C100.384746,9.57907031 99.6347461,10.1269219 99.2304492,11.222625 C99.0136523,11.8085625 98.9052539,12.5527031 98.9052539,13.4550469 C98.9052539,14.1816094 99.0136523,14.7997734 99.2304492,15.3095391 C99.6406055,16.2821953 100.390605,16.7685234 101.480449,16.7685234 Z M97.3847461,8.46285937 L98.922832,8.46285937 L98.922832,9.71090625 C99.2392383,9.28317187 99.5849414,8.95211719 99.9599414,8.71774219 C100.493145,8.36617969 101.120098,8.19039844 101.840801,8.19039844 C102.907207,8.19039844 103.81248,8.59908984 104.556621,9.41647266 C105.300762,10.2338555 105.672832,11.4013359 105.672832,12.9189141 C105.672832,14.9696953 105.136699,16.4345391 104.064434,17.3134453 C103.384746,17.8700859 102.59373,18.1484062 101.691387,18.1484062 C100.982402,18.1484062 100.387676,17.9931328 99.907207,17.6825859 C99.625957,17.5068047 99.3124805,17.2050469 98.9667773,16.7773125 L98.9667773,21.5849297 L97.3847461,21.5849297 L97.3847461,8.46285937 Z" id="Shape"></path>
                <polygon id="Path" points="107.56248 4.92086719 109.144512 4.92086719 109.144512 17.832 107.56248 17.832"></polygon>
                <path d="M115.43748,8.20797656 C116.105449,8.20797656 116.75291,8.36471484 117.379863,8.67819141 C118.006816,8.99166797 118.484355,9.39742969 118.81248,9.89547656 C119.128887,10.3700859 119.339824,10.9237969 119.445293,11.5566094 C119.539043,11.9902031 119.585918,12.6816094 119.585918,13.6308281 L112.686504,13.6308281 C112.715801,14.5859062 112.941387,15.3520195 113.363262,15.929168 C113.785137,16.5063164 114.438457,16.7948906 115.323223,16.7948906 C116.149395,16.7948906 116.808574,16.5224297 117.300762,15.9775078 C117.582012,15.6611016 117.78123,15.2948906 117.898418,14.878875 L119.454082,14.878875 C119.413066,15.2245781 119.276836,15.609832 119.045391,16.0346367 C118.813945,16.4594414 118.554668,16.8066094 118.267559,17.0761406 C117.78709,17.5448906 117.192363,17.8612969 116.483379,18.0253594 C116.10252,18.1191094 115.671855,18.1659844 115.191387,18.1659844 C114.019512,18.1659844 113.026348,17.7397148 112.211895,16.8871758 C111.397441,16.0346367 110.990215,14.8407891 110.990215,13.3056328 C110.990215,11.7939141 111.400371,10.566375 112.220684,9.62301562 C113.040996,8.67965625 114.113262,8.20797656 115.43748,8.20797656 Z M117.959941,12.3739922 C117.895488,11.6884453 117.746074,11.1405937 117.511699,10.7304375 C117.078105,9.96871875 116.354473,9.58785937 115.340801,9.58785937 C114.614238,9.58785937 114.004863,9.85006641 113.512676,10.3744805 C113.020488,10.8988945 112.759746,11.5653984 112.730449,12.3739922 L117.959941,12.3739922 Z" id="Shape"></path>
            </g>
            <polygon id="Path-2" fill="#FFFFFF" points="2.472 4.34510548 4.11882883 4.34510548 4.06871508 2.07124724 2.472 2.07124724"></polygon>
            <polygon id="Path-3" fill="#FFFFFF" points="2.472 15.9444597 4.11882883 15.9444597 4.11882883 18.9415815 2.472 18.9046338"></polygon>
            <polygon id="Path-4" fill="#FFFFFF" points="38.952 9.16577919 40.3878678 9.16577919 40.3878678 12.5990631 38.952 12.5990631"></polygon>
            <polygon id="Path-4-Copy" fill="#FFFFFF" points="38.952 1.16577919 40.3878678 1.16577919 40.3878678 4.59906313 38.952 4.59906313"></polygon>
            <polygon id="Path-5" fill="#FFFFFF" points="23.5508961 15.0530366 28.7347277 0 30.2215459 0 24.9806377 15.0530366"></polygon>
            <polygon id="Path-6" fill="#FFFFFF" points="56.6018271 8.45901669 53.5013998 14.554938 51.956693 13.7149237 55.0579099 7.93138275"></polygon>
        </g>
    </g>
</svg>
